<mxfile host="Electron" modified="2024-05-06T02:35:48.997Z" agent="Mozilla/5.0 (Windows NT 10.0; Win64; x64) AppleWebKit/537.36 (KHTML, like Gecko) draw.io/24.2.5 Chrome/120.0.6099.109 Electron/28.1.0 Safari/537.36" etag="C90VFr4IkxFiGzrsNgUc" version="24.2.5" type="device">
  <diagram name="Page-1" id="ygPattPglabLzfO5Requ">
    <mxGraphModel dx="1674" dy="884" grid="1" gridSize="10" guides="1" tooltips="1" connect="1" arrows="1" fold="1" page="1" pageScale="0.7" pageWidth="827" pageHeight="1169" math="0" shadow="0">
      <root>
        <mxCell id="0" />
        <mxCell id="1" parent="0" />
        <mxCell id="zME4gdBqckHG-3SlVfI1-1" value="&lt;span style=&quot;font-size:11.0pt;line-height:107%;&lt;br/&gt;font-family:&amp;quot;Aptos&amp;quot;,sans-serif;mso-ascii-theme-font:minor-latin;mso-fareast-font-family:&lt;br/&gt;Aptos;mso-fareast-theme-font:minor-latin;mso-hansi-theme-font:minor-latin;&lt;br/&gt;mso-bidi-font-family:&amp;quot;Times New Roman&amp;quot;;mso-bidi-theme-font:minor-bidi;&lt;br/&gt;mso-ansi-language:FR;mso-fareast-language:EN-US;mso-bidi-language:AR-SA&quot;&gt;6 - Diagramme de déploiement&lt;/span&gt;" style="text;html=1;align=center;verticalAlign=middle;resizable=0;points=[];autosize=1;strokeColor=none;fillColor=none;" parent="1" vertex="1">
          <mxGeometry x="45" y="30" width="220" height="30" as="geometry" />
        </mxCell>
        <mxCell id="6voYikKMC_aPGmfRGK4t-1" value="Client" style="verticalAlign=top;align=left;shape=cube;size=10;direction=south;fontStyle=0;html=1;boundedLbl=1;spacingLeft=5;whiteSpace=wrap;" vertex="1" parent="1">
          <mxGeometry x="30" y="80" width="150" height="340" as="geometry" />
        </mxCell>
        <mxCell id="6voYikKMC_aPGmfRGK4t-14" value="&lt;u&gt;:MainWindow&lt;/u&gt;" style="fontStyle=0;html=1;whiteSpace=wrap;" vertex="1" parent="6voYikKMC_aPGmfRGK4t-1">
          <mxGeometry x="15.77" y="71" width="104.23" height="40" as="geometry" />
        </mxCell>
        <mxCell id="6voYikKMC_aPGmfRGK4t-15" value="&lt;u&gt;:FileManager&lt;/u&gt;" style="fontStyle=0;html=1;whiteSpace=wrap;" vertex="1" parent="6voYikKMC_aPGmfRGK4t-1">
          <mxGeometry x="15.769999999999996" y="211" width="104.23" height="40" as="geometry" />
        </mxCell>
        <mxCell id="6voYikKMC_aPGmfRGK4t-3" value="Server" style="verticalAlign=top;align=left;shape=cube;size=10;direction=south;fontStyle=0;html=1;boundedLbl=1;spacingLeft=5;whiteSpace=wrap;" vertex="1" parent="1">
          <mxGeometry x="330" y="80" width="150" height="341" as="geometry" />
        </mxCell>
        <mxCell id="6voYikKMC_aPGmfRGK4t-16" value="&lt;u&gt;:Server&lt;/u&gt;" style="fontStyle=0;html=1;whiteSpace=wrap;" vertex="1" parent="6voYikKMC_aPGmfRGK4t-3">
          <mxGeometry x="22.439999999999998" y="70.9964705882353" width="105.13" height="40.117647058823536" as="geometry" />
        </mxCell>
        <mxCell id="6voYikKMC_aPGmfRGK4t-17" value="&lt;u&gt;:ServerInterface&lt;/u&gt;" style="fontStyle=0;html=1;whiteSpace=wrap;" vertex="1" parent="6voYikKMC_aPGmfRGK4t-3">
          <mxGeometry x="22.439999999999998" y="200.58823529411768" width="105.13" height="40.117647058823536" as="geometry" />
        </mxCell>
        <mxCell id="6voYikKMC_aPGmfRGK4t-21" value="" style="endArrow=block;startArrow=none;endFill=0;startFill=0;endSize=8;html=1;verticalAlign=bottom;dashed=1;labelBackgroundColor=none;rounded=0;" edge="1" parent="6voYikKMC_aPGmfRGK4t-3" source="6voYikKMC_aPGmfRGK4t-16" target="6voYikKMC_aPGmfRGK4t-17">
          <mxGeometry width="160" relative="1" as="geometry">
            <mxPoint x="-140" y="251" as="sourcePoint" />
            <mxPoint x="20" y="251" as="targetPoint" />
          </mxGeometry>
        </mxCell>
        <mxCell id="6voYikKMC_aPGmfRGK4t-22" value="2: writeFile(filename)" style="html=1;verticalAlign=bottom;labelBackgroundColor=none;endArrow=open;endFill=0;dashed=1;rounded=0;" edge="1" parent="6voYikKMC_aPGmfRGK4t-3">
          <mxGeometry width="160" relative="1" as="geometry">
            <mxPoint x="-10" y="261" as="sourcePoint" />
            <mxPoint x="-140" y="261" as="targetPoint" />
          </mxGeometry>
        </mxCell>
        <mxCell id="6voYikKMC_aPGmfRGK4t-7" value="Router" style="verticalAlign=top;align=center;shape=cube;size=10;direction=south;html=1;boundedLbl=1;spacingLeft=5;whiteSpace=wrap;" vertex="1" parent="1">
          <mxGeometry x="450" y="541" width="100" height="80" as="geometry" />
        </mxCell>
        <mxCell id="6voYikKMC_aPGmfRGK4t-8" value="" style="endArrow=none;html=1;rounded=0;exitX=0;exitY=0;exitDx=340;exitDy=70;exitPerimeter=0;" edge="1" parent="1" source="6voYikKMC_aPGmfRGK4t-1" target="6voYikKMC_aPGmfRGK4t-7">
          <mxGeometry width="50" height="50" relative="1" as="geometry">
            <mxPoint x="240" y="511" as="sourcePoint" />
            <mxPoint x="350" y="321" as="targetPoint" />
            <Array as="points">
              <mxPoint x="110" y="581" />
            </Array>
          </mxGeometry>
        </mxCell>
        <mxCell id="6voYikKMC_aPGmfRGK4t-9" value="" style="endArrow=none;html=1;rounded=0;exitX=0;exitY=0;exitDx=340;exitDy=70;exitPerimeter=0;" edge="1" parent="1" source="6voYikKMC_aPGmfRGK4t-3">
          <mxGeometry width="50" height="50" relative="1" as="geometry">
            <mxPoint x="100" y="430" as="sourcePoint" />
            <mxPoint x="410" y="581" as="targetPoint" />
            <Array as="points" />
          </mxGeometry>
        </mxCell>
        <mxCell id="6voYikKMC_aPGmfRGK4t-10" value="192.168.1.1" style="text;html=1;align=center;verticalAlign=middle;resizable=0;points=[];autosize=1;strokeColor=none;fillColor=none;" vertex="1" parent="1">
          <mxGeometry x="350" y="599" width="90" height="30" as="geometry" />
        </mxCell>
        <mxCell id="6voYikKMC_aPGmfRGK4t-11" value="192.168.1.30" style="text;html=1;align=center;verticalAlign=middle;resizable=0;points=[];autosize=1;strokeColor=none;fillColor=none;" vertex="1" parent="1">
          <mxGeometry x="410" y="441" width="90" height="30" as="geometry" />
        </mxCell>
        <mxCell id="6voYikKMC_aPGmfRGK4t-12" value="192.168.1.29" style="text;html=1;align=center;verticalAlign=middle;resizable=0;points=[];autosize=1;strokeColor=none;fillColor=none;" vertex="1" parent="1">
          <mxGeometry x="110" y="431" width="90" height="30" as="geometry" />
        </mxCell>
        <mxCell id="6voYikKMC_aPGmfRGK4t-18" value="" style="endArrow=none;dashed=1;html=1;dashPattern=1 3;strokeWidth=2;rounded=0;" edge="1" parent="1">
          <mxGeometry width="50" height="50" relative="1" as="geometry">
            <mxPoint x="150" y="160.99938282411176" as="sourcePoint" />
            <mxPoint x="352.44000000000005" y="161.03583027519426" as="targetPoint" />
          </mxGeometry>
        </mxCell>
        <mxCell id="6voYikKMC_aPGmfRGK4t-19" value="" style="endArrow=none;dashed=1;html=1;dashPattern=1 3;strokeWidth=2;rounded=0;" edge="1" parent="1" source="6voYikKMC_aPGmfRGK4t-15">
          <mxGeometry width="50" height="50" relative="1" as="geometry">
            <mxPoint x="160" y="181" as="sourcePoint" />
            <mxPoint x="350" y="181" as="targetPoint" />
            <Array as="points">
              <mxPoint x="250" y="311" />
              <mxPoint x="250" y="181" />
            </Array>
          </mxGeometry>
        </mxCell>
        <mxCell id="6voYikKMC_aPGmfRGK4t-23" value="1: saveFile()" style="html=1;verticalAlign=bottom;labelBackgroundColor=none;endArrow=open;endFill=0;dashed=1;rounded=0;" edge="1" parent="1">
          <mxGeometry width="160" relative="1" as="geometry">
            <mxPoint x="194" y="141" as="sourcePoint" />
            <mxPoint x="310" y="141" as="targetPoint" />
          </mxGeometry>
        </mxCell>
        <mxCell id="6voYikKMC_aPGmfRGK4t-24" value="1) Lorsqu&#39;on clique sur le bouton pour sauvegarder un fichier sur le serveur (géré dans&amp;nbsp;&lt;div&gt;MainWindow) ça appelle la méthode saveFile() de la classe Server.&lt;div&gt;2) La méthode saveFile() de Server appelle ensuite la méthode writeFile(filename)&amp;nbsp;&lt;/div&gt;&lt;div&gt;de FileManager.&lt;/div&gt;&lt;div&gt;3) La méthode writeFile(filename) de FileManager écrit le fichier dans un répertoire précis avec&amp;nbsp;&lt;/div&gt;&lt;div&gt;le nom filename.&amp;nbsp;&lt;/div&gt;&lt;/div&gt;" style="text;html=1;align=center;verticalAlign=middle;resizable=0;points=[];autosize=1;strokeColor=none;fillColor=none;" vertex="1" parent="1">
          <mxGeometry x="20" y="660" width="530" height="100" as="geometry" />
        </mxCell>
      </root>
    </mxGraphModel>
  </diagram>
</mxfile>
